<?xml version="1.0" encoding="UTF-8" standalone="no"?>
<svg
   viewBox="0 0 78 78"
   version="1.1"
   id="svg2"
   sodipodi:docname="cargo-ship.svg"
   width="78"
   height="78"
   inkscape:version="1.3.2 (091e20e, 2023-11-25)"
   xmlns:inkscape="http://www.inkscape.org/namespaces/inkscape"
   xmlns:sodipodi="http://sodipodi.sourceforge.net/DTD/sodipodi-0.dtd"
   xmlns="http://www.w3.org/2000/svg"
   xmlns:svg="http://www.w3.org/2000/svg">
  <defs
     id="defs2" />
  <sodipodi:namedview
     id="namedview2"
     pagecolor="#505050"
     bordercolor="#eeeeee"
     borderopacity="1"
     inkscape:showpageshadow="0"
     inkscape:pageopacity="0"
     inkscape:pagecheckerboard="0"
     inkscape:deskcolor="#505050"
     inkscape:zoom="7.2559063"
     inkscape:cx="30.802493"
     inkscape:cy="36.108515"
     inkscape:window-width="1760"
     inkscape:window-height="1137"
     inkscape:window-x="1137"
     inkscape:window-y="88"
     inkscape:window-maximized="0"
     inkscape:current-layer="svg2" />
  <path
     d="M 0,0 H 78 V 78 H 0 Z"
     fill="#000000"
     fill-opacity="1"
     id="path1"
     style="stroke-width:0.152344" />
  <g
     class=""
     id="g2"
     transform="scale(0.15234375)">
    <path
       d="M 71.8,115.98187 42.38,187.10256 H 135 v -71.12069 z m -44.58,89.12069 24.11,108.5 c 25.42,-7.4 54.37,-14.5 76.67,-14.5 24.2,0 46.2,8.6 67.2,16.6 21,8 41,15.4 60.8,15.4 19.8,0 39.8,-7.4 60.8,-15.4 19,-7.2 38.9,-15 60.5,-16.4 l -44.1,-14.7 5.6,-17 36.2,12 v -26.5 h -17 v -18 h 17 v -30 h -35.3 l -32,32 H 154.4 l -16,-32 z m 365.78,0 v 30 h 17 v 18 h -17 v 26.5 l 36.2,-12 5.6,17 -44,14.7 c 12.1,0.7 25.7,3.1 39.4,6.2 5.4,-7.1 10.8,-15.3 16.1,-24 14.9,-24.9 28.2,-53.9 36.8,-76.4 z m -265,110 c -24.2,0 -56.26,8.3 -83.09,16.4 -10.02,3 -19.26,6 -26.91,8.7 v 19 c 8.36,-3 19.57,-6.7 32.11,-10.5 26.17,-7.9 58.09,-15.6 77.89,-15.6 19.8,0 39.8,7.4 60.8,15.4 21,8 43,16.6 67.2,16.6 24.2,0 46.2,-8.6 67.2,-16.6 21,-8 41,-15.4 60.8,-15.4 19.8,0 51.7,7.7 77.9,15.6 12.5,3.8 23.7,7.5 32.1,10.5 v -19 c -7.7,-2.6 -16.9,-5.7 -26.9,-8.7 -26.8,-8.1 -58.9,-16.4 -83.1,-16.4 -24.2,0 -46.2,8.6 -67.2,16.6 -21,8 -41,15.4 -60.8,15.4 -19.8,0 -39.8,-7.4 -60.8,-15.4 -21,-8 -43,-16.6 -67.2,-16.6 z m 0,36 c -24.2,0 -56.26,8.3 -83.09,16.4 -10.02,3 -19.26,6 -26.91,8.7 v 19 c 8.36,-3 19.57,-6.7 32.11,-10.5 26.17,-7.9 58.09,-15.6 77.89,-15.6 19.8,0 39.8,7.4 60.8,15.4 21,8 43,16.6 67.2,16.6 24.2,0 46.2,-8.6 67.2,-16.6 21,-8 41,-15.4 60.8,-15.4 19.8,0 51.7,7.7 77.9,15.6 12.5,3.8 23.7,7.5 32.1,10.5 v -19 c -7.7,-2.6 -16.9,-5.7 -26.9,-8.7 -26.8,-8.1 -58.9,-16.4 -83.1,-16.4 -24.2,0 -46.2,8.6 -67.2,16.6 -21,8 -41,15.4 -60.8,15.4 -19.8,0 -39.8,-7.4 -60.8,-15.4 -21,-8 -43,-16.6 -67.2,-16.6 z"
       fill="#ffffff"
       fill-opacity="1"
       id="path2"
       sodipodi:nodetypes="cccccccsssccccccccccccccccccccccccccccsccccsssssccccssssssccccsssssccccsssss" />
  </g>
</svg>
