<?xml version="1.0" encoding="UTF-8" standalone="no"?>
<svg
   viewBox="0 0 78 78"
   version="1.1"
   id="svg2"
   sodipodi:docname="tank.svg"
   inkscape:version="1.3.2 (091e20e, 2023-11-25)"
   width="78"
   height="78"
   xmlns:inkscape="http://www.inkscape.org/namespaces/inkscape"
   xmlns:sodipodi="http://sodipodi.sourceforge.net/DTD/sodipodi-0.dtd"
   xmlns="http://www.w3.org/2000/svg"
   xmlns:svg="http://www.w3.org/2000/svg">
  <defs
     id="defs2" />
  <sodipodi:namedview
     id="namedview2"
     pagecolor="#505050"
     bordercolor="#eeeeee"
     borderopacity="1"
     inkscape:showpageshadow="0"
     inkscape:pageopacity="0"
     inkscape:pagecheckerboard="0"
     inkscape:deskcolor="#505050"
     inkscape:zoom="1.7041198"
     inkscape:cx="80.100002"
     inkscape:cy="128.21868"
     inkscape:window-width="1968"
     inkscape:window-height="1280"
     inkscape:window-x="0"
     inkscape:window-y="25"
     inkscape:window-maximized="0"
     inkscape:current-layer="svg2" />
  <path
     d="M 0,0 H 78 V 78 H 0 Z"
     fill="#000000"
     fill-opacity="1"
     id="path1"
     style="stroke-width:0.152344" />
  <g
     class=""
     transform="scale(0.15234375)"
     id="g2">
    <path
       d="m 130.613,43.002 v 66.926 c -22.925,19.7 -38.03,48.177 -40.533,80.252 h 234.51 c -2.666,-34.175 -19.637,-64.265 -45.133,-84.006 H 149.303 V 43.002 Z m 342.007,15.736 -41.53,11.127 16.504,61.588 41.525,-11.127 -16.5,-61.588 z m -54.042,36.627 -98.787,26.47 c 5.382,7.835 9.97,16.256 13.647,25.15 L 425.78,122.24 Z m -297.048,110.977 -78.364,37.045 0.002,50.3 18.207,-7.556 H 442.11 l 19.316,6.413 c 0,-51.397 -119.076,-83.53 -183.166,-86.2 H 121.53 Z m -38.17,97.88 v 0.038 c -35.936,0.645 -65.065,30.15 -65.065,66.232 0,36.484 29.777,66.26 66.262,66.26 1.286,0 2.563,-0.046 3.832,-0.12 h 106.473 c 1.27,0.074 2.545,0.12 3.832,0.12 1.287,0 2.563,-0.046 3.832,-0.12 h 107.34 c 1.27,0.074 2.545,0.12 3.832,0.12 1.286,0 2.562,-0.046 3.83,-0.12 H 423.7 c 1.268,0.074 2.544,0.12 3.83,0.12 36.486,0 66.263,-29.776 66.263,-66.26 0,-36.485 -29.777,-66.262 -66.262,-66.262 -0.276,0 -0.55,0.02 -0.827,0.022 v -0.03 z m 47.2,18.686 h 22.13 c -4.283,4.144 -8.012,8.855 -11.063,14.014 -3.05,-5.16 -6.78,-9.87 -11.066,-14.014 z m 114.14,0 h 22.995 c -4.49,4.344 -8.37,9.313 -11.498,14.766 -3.13,-5.453 -7.006,-10.422 -11.498,-14.766 z m 115.003,0 h 21.824 c -4.21,4.074 -7.89,8.692 -10.912,13.748 -3.022,-5.056 -6.7,-9.674 -10.912,-13.748 z M 84.557,322.92 c 26.385,0 47.572,21.187 47.572,47.572 0,25.293 -19.477,45.798 -44.333,47.45 H 83.36 v 0.09 c -25.825,-0.63 -46.378,-21.558 -46.378,-47.54 0,-26.383 21.19,-47.572 47.575,-47.572 z m 114.138,0 c 26.386,0 47.573,21.187 47.573,47.572 0,25.293 -19.476,45.798 -44.332,47.45 h -6.48 c -24.858,-1.652 -44.335,-22.157 -44.335,-47.45 0,-26.383 21.19,-47.572 47.575,-47.572 z m 115.004,0 c 26.372,0 47.548,21.166 47.57,47.533 v 0.078 c -0.02,25.276 -19.487,45.76 -44.33,47.413 h -6.48 c -24.858,-1.653 -44.335,-22.158 -44.335,-47.45 0,-26.384 21.19,-47.573 47.574,-47.573 z m 113.83,0 c 26.387,0 47.575,21.187 47.575,47.572 0,26.383 -21.188,47.572 -47.574,47.572 -0.277,0 -0.55,-0.016 -0.827,-0.02 v -0.1 h -2.412 c -24.843,-1.653 -44.31,-22.138 -44.33,-47.413 v -0.078 c 0.022,-26.364 21.2,-47.532 47.57,-47.532 z m -171.333,80.39 c 3.098,5.398 6.928,10.32 11.362,14.633 h -22.724 c 4.434,-4.312 8.264,-9.235 11.36,-14.632 z m -114.572,0.75 c 3.02,5.106 6.702,9.77 10.93,13.883 h -21.858 c 4.228,-4.112 7.91,-8.778 10.928,-13.882 z m 228.99,0.266 c 2.99,5.002 6.62,9.576 10.776,13.617 h -21.55 c 4.155,-4.04 7.786,-8.615 10.775,-13.617 z"
       fill="#ffffff"
       fill-opacity="1"
       id="path2" />
  </g>
</svg>
