<?xml version="1.0" encoding="UTF-8" standalone="no"?>
<svg
   viewBox="0 299 425 425"
   width="425"
   height="425"
   id="svg4136"
   version="1.1"
   inkscape:version="1.3.2 (091e20e, 2023-11-25)"
   sodipodi:docname="North_American_F-100_Super_Sabre_silhouette.svg"
   xmlns:inkscape="http://www.inkscape.org/namespaces/inkscape"
   xmlns:sodipodi="http://sodipodi.sourceforge.net/DTD/sodipodi-0.dtd"
   xmlns="http://www.w3.org/2000/svg"
   xmlns:svg="http://www.w3.org/2000/svg"
   xmlns:rdf="http://www.w3.org/1999/02/22-rdf-syntax-ns#"
   xmlns:cc="http://creativecommons.org/ns#"
   xmlns:dc="http://purl.org/dc/elements/1.1/">
  <metadata
     id="metadata4410">
    <rdf:RDF>
      <cc:Work
         rdf:about="">
        <dc:format>image/svg+xml</dc:format>
        <dc:type
           rdf:resource="http://purl.org/dc/dcmitype/StillImage" />
        <dc:title />
      </cc:Work>
    </rdf:RDF>
  </metadata>
  <defs
     id="defs4408" />
  <sodipodi:namedview
     pagecolor="#ffffff"
     bordercolor="#666666"
     borderopacity="1"
     objecttolerance="10"
     gridtolerance="10"
     guidetolerance="10"
     inkscape:pageopacity="0"
     inkscape:pageshadow="2"
     inkscape:window-width="2144"
     inkscape:window-height="1167"
     id="namedview4406"
     showgrid="false"
     inkscape:zoom="1.1575153"
     inkscape:cx="487.68254"
     inkscape:cy="218.57162"
     inkscape:window-x="583"
     inkscape:window-y="70"
     inkscape:window-maximized="0"
     inkscape:current-layer="svg4136"
     inkscape:showpageshadow="0"
     inkscape:pagecheckerboard="0"
     inkscape:deskcolor="#505050" />
  <g
     id="F100"
     inkscape:export-filename="g1.svg"
     inkscape:export-xdpi="96"
     inkscape:export-ydpi="96"
     style="display:inline"
     transform="translate(-152.91376,-44.923798)">
    <rect
       style="fill:#000000;stroke-width:8.50051"
       id="rect1"
       width="425"
       height="425"
       x="-577.91376"
       y="343.9238"
       transform="scale(-1,1)" />
    <g
       stroke-width="2.3792"
       id="g4324"
       style="fill:none;stroke:#000000"
       transform="matrix(-1,0,0,1,861.27934,-156.36942)">
      <path
         d="m 695.08,645.19 c 0,0 -22.18,-3.28 -25.58,-0.72 l -56.16,44.65 c 0,0 -53.38,10.45 -56.7,11.38 l -124.39,-8.31 c 0,0 -26.87,-7.87 -44.61,-1.65 l -28.42,12.76 -57.79,11.32 -0.78,15.77 c 0,0 14,3.42 23.22,4.41 0,0 35.75,4.49 46.59,5.57 l 262.07,12.92 c 0,0 42.13,-3.38 43.3,-4.95 l 1.1,-22.29 c 0,0 -13.84,-6.68 -24.12,-8.28 l 0.37,-7.61 6.53,0.32 20.39,-37.69 5.43,0.27 0.49,-9.79 z"
         id="path4326"
         style="display:inline;fill:#ffffff;fill-opacity:1" />
    </g>
    <path
       style="fill:#000000;fill-opacity:1;fill-rule:evenodd;stroke:#000000;stroke-width:1.24807px;stroke-linecap:butt;stroke-linejoin:miter;stroke-opacity:1"
       d="m 492.159,560.80984 -1.69892,4.8069 c -18.33411,-0.0576 -36.66823,-4.15869 -55.00235,-7.21035 l -3.18546,-10.21457 c 26.74813,-13.62179 52.45588,-0.42007 59.88673,12.61802 z"
       id="path4414"
       inkscape:connector-curvature="0"
       sodipodi:nodetypes="ccccc" />
  </g>
</svg>
